<svg xmlns="http://www.w3.org/2000/svg" xmlns:xlink="http://www.w3.org/1999/xlink" viewBox="0 0 130 60">

<!-- 
/*******************************************************************************
 * Copyright (c) 2024 Contributors to the Eclipse Foundation.
 * 
 * See the NOTICE file(s) distributed with this work for additional
 * information regarding copyright ownership.
 * 
 * This program and the accompanying materials
 * are made available under the terms of the Eclipse Public License v2.0
 * and Eclipse Distribution License v1.0 which accompany this distribution.
 * 
 * The Eclipse Public License is available at
 *    http://www.eclipse.org/legal/epl-v20.html
 * and the Eclipse Distribution License is available at
 *    http://www.eclipse.org/org/documents/edl-v10.html.
 * 
 * SPDX-License-Identifier: EPL-2.0 OR BSD-3-Clause
 * 
 ******************************************************************************/
-->

<symbol id="msgcoap"> 
<rect stroke="black" fill="none" stroke-width="1" x="2" y="2" rx="2" ry="2" width="20" height="15" stroke-linejoin="round" />
<path stroke="black" fill="none" stroke-width="1" d="M2,5 l10,3 10,-3" stroke-linecap="round" stroke-linejoin="round"/>
<text id="coap" x="12" y="14" font-size="6px" text-anchor="middle">coap</text>
</symbol>

<symbol id="msghttp"> 
<rect stroke="black" fill="none" stroke-width="1" x="2" y="2" rx="2" ry="2" width="20" height="15" stroke-linejoin="round" />
<path stroke="black" fill="none" stroke-width="1" d="M2,5 l10,3 10,-3" stroke-linecap="round" stroke-linejoin="round"/>
<text id="coap" x="12" y="14" font-size="6px" text-anchor="middle">http</text>
</symbol>

<symbol id="box"> 
<path stroke="black" fill="none" stroke-width="1" d="M5,21 a7,5,0 1 1 10,-8" stroke-linecap="round"/>
<path stroke="black" fill="none" stroke-width="1" d="M13,12 a6,4,0 1 1 14,0" stroke-linecap="round"/>
<path stroke="black" fill="none" stroke-width="1" d="M27,10 a6,4,0 1 1 6,8" stroke-linecap="round"/>
<rect stroke="black" fill="none" stroke-width="1" x="7" y="17" rx="2" ry="2" width="24" height="10" stroke-linejoin="round" />
<circle stroke="black" fill="none" stroke-width="1" cx="11" cy="23" r="1"/>
<path stroke="black" fill="none" stroke-width="1" d="M15,24 l2,0 m3,0 l2,0 m3,0 l2,0" stroke-linecap="round"/>
</symbol>

<symbol id="box2"> 
<path stroke="black" fill="none" stroke-width="1" d="M5,21 a7,5,0 1 1 10,-8" stroke-linecap="round"/>
<path stroke="black" fill="none" stroke-width="1" d="M13,12 a6,4,0 1 1 14,0" stroke-linecap="round"/>
<path stroke="black" fill="none" stroke-width="1" d="M27,10 a6,4,0 1 1 6,8" stroke-linecap="round"/>

<rect stroke="black" fill="none" stroke-width="1" x="7" y="17" rx="2" ry="2" width="24" height="12" stroke-linejoin="round" />
<ellipse stroke="black" fill="none" stroke-width="1" cx="19" cy="21" rx="8" ry="2" />
<path stroke="black" fill="none" stroke-width="1" d="M12,22 a8,2,0 1 0 14,0" stroke-linecap="round"/>
<path stroke="black" fill="none" stroke-width="1" d="M12,24 a8,2,0 1 0 14,0" stroke-linecap="round"/>

<rect stroke="black" fill="none" stroke-width="1" x="7" y="31" rx="2" ry="2" width="24" height="12" stroke-linejoin="round" />
<ellipse stroke="black" fill="none" stroke-width="1" cx="19" cy="35" rx="8" ry="2" />
<path stroke="black" fill="none" stroke-width="1" d="M12,36 a8,2,0 1 0 14,0" stroke-linecap="round"/>
<path stroke="black" fill="none" stroke-width="1" d="M12,38 a8,2,0 1 0 14,0" stroke-linecap="round"/>

<rect stroke="black" fill="none" stroke-width="1" x="7" y="45" rx="2" ry="2" width="24" height="12" stroke-linejoin="round" />
<ellipse stroke="black" fill="none" stroke-width="1" cx="19" cy="49" rx="8" ry="2" />
<path stroke="black" fill="none" stroke-width="1" d="M12,50 a8,2,0 1 0 14,0" stroke-linecap="round"/>
<path stroke="black" fill="none" stroke-width="1" d="M12,52 a8,2,0 1 0 14,0" stroke-linecap="round"/>

</symbol>

<path stroke="black" fill="none" stroke-width="1" d="M10,19 q8,6 15,8" stroke-linecap="round" stroke-linejoin="round" stroke-dasharray="1 2"/>
<path stroke="black" fill="none" stroke-width="1" d="M10,50 q8,-6 16,-8" stroke-linecap="round" stroke-linejoin="round" stroke-dasharray="1 2"/>

<use href="#msgcoap" x="0" y="39" height="20" width="24" transform="scale(0.5)"/>
<use href="#msgcoap" x="15" y="56" height="20" width="24" transform="scale(0.5)"/>
<use href="#msgcoap" x="5" y="73" height="20" width="24" transform="scale(0.5)"/>

<use href="#box" x="20" y="15" height="30" width="40" />

<path stroke="black" fill="none" stroke-width="1" d="M53,36 l13,0" stroke-linecap="round" stroke-linejoin="round" stroke-dasharray="1 2"/>
<path stroke="black" fill="none" stroke-width="1" d="M53,39 l13,0" stroke-linecap="round" stroke-linejoin="round" stroke-dasharray="1 2"/>

<use href="#box2" x="61" y="1" height="60" width="40" />

<path stroke="black" fill="none" stroke-width="1" d="M100,14 q4,-1 12,-6" stroke-linecap="round" stroke-linejoin="round" stroke-dasharray="1 2"/>
<path stroke="black" fill="none" stroke-width="1" d="M95,46 q8,2 17,8" stroke-linecap="round" stroke-linejoin="round" stroke-dasharray="1 2"/>

<use href="#msghttp" x="100" y="14" height="20" width="24" />

<use href="#msghttp" x="105" y="32" height="20" width="24" />

</svg>
